<?xml version="1.0" standalone="no"?>
<!DOCTYPE svg PUBLIC "-//W3C//DTD SVG 20010904//EN"
 "http://www.w3.org/TR/2001/REC-SVG-20010904/DTD/svg10.dtd">
<svg version="1.0" xmlns="http://www.w3.org/2000/svg"
 width="1024.000000pt" height="1024.000000pt" viewBox="0 0 1024.000000 1024.000000"
 preserveAspectRatio="xMidYMid meet">
<metadata>
Created by potrace 1.11, written by Peter Selinger 2001-2013
</metadata>
<g transform="translate(0.000000,1024.000000) scale(0.100000,-0.100000)"
fill="#000000" stroke="none">
<path d="M3247 8044 c-1 -1 -40 -5 -87 -8 -47 -3 -96 -8 -110 -11 -14 -2 -47
-7 -75 -10 -216 -26 -492 -97 -716 -185 -225 -89 -479 -229 -671 -370 -56 -41
-106 -79 -112 -85 -7 -5 -49 -43 -94 -84 -279 -248 -487 -515 -651 -834 -46
-91 -133 -285 -137 -307 0 -3 -5 -16 -11 -30 -25 -59 -94 -301 -107 -375 -24
-129 -35 -198 -41 -245 -2 -25 -8 -67 -11 -95 -10 -73 -12 -457 -3 -523 4 -31
10 -81 13 -110 9 -78 16 -121 27 -177 5 -27 12 -65 15 -84 21 -128 115 -415
196 -594 75 -167 130 -265 239 -427 347 -514 842 -896 1429 -1102 160 -56 400
-117 525 -133 48 -6 75 -10 148 -20 53 -7 276 -18 367 -18 83 0 381 12 450 18
183 15 358 34 383 41 10 3 35 8 55 10 31 4 107 17 222 39 159 30 409 95 615
159 42 13 46 21 70 149 3 16 15 68 26 115 25 105 138 607 145 642 6 27 23 106
30 130 13 54 74 327 74 337 0 8 -32 11 -109 11 l-110 0 -34 -57 c-19 -31 -114
-191 -212 -356 -200 -337 -272 -451 -318 -503 -103 -116 -230 -211 -362 -270
-77 -34 -226 -79 -287 -87 -22 -3 -43 -7 -47 -9 -7 -4 -109 -15 -203 -21 -79
-6 -288 -6 -348 -1 -133 12 -186 20 -292 42 -547 114 -1009 447 -1321 952
-119 192 -235 460 -307 707 -32 110 -36 124 -46 180 -2 17 -9 46 -14 65 -13
49 -47 262 -55 340 -4 36 -8 76 -10 90 -9 61 -18 268 -18 405 0 194 10 346 34
500 16 108 18 115 29 169 6 28 12 60 14 71 7 38 28 110 57 200 16 50 29 93 29
97 1 4 12 34 26 65 14 32 35 78 45 103 21 48 27 59 79 155 230 421 619 744
1075 894 238 78 452 109 711 105 590 -9 970 -150 1200 -445 24 -31 111 -180
195 -330 83 -151 164 -296 179 -324 15 -27 41 -75 58 -105 l31 -55 109 -3 110
-3 -9 48 c-5 26 -12 59 -14 73 -3 14 -10 52 -15 85 -6 33 -29 159 -51 280 -22
121 -42 229 -44 240 -3 27 -13 78 -36 205 -11 58 -22 121 -25 140 -3 19 -12
67 -19 105 -8 39 -16 87 -19 107 -3 21 -7 43 -8 50 -2 7 -16 19 -32 26 -46 20
-357 109 -446 127 -8 2 -49 10 -90 19 -72 14 -188 35 -240 41 -68 9 -127 18
-140 20 -8 2 -49 6 -90 10 -41 3 -86 8 -100 10 -86 12 -703 29 -713 19z"/>
<path d="M7927 8044 c-1 -1 -40 -4 -86 -8 -46 -3 -86 -8 -90 -10 -3 -2 -31 -7
-61 -11 -30 -4 -58 -9 -61 -11 -3 -2 -21 -6 -40 -9 -19 -3 -52 -11 -74 -17
-22 -6 -44 -12 -50 -14 -44 -9 -229 -86 -313 -130 -243 -127 -433 -292 -571
-494 -120 -177 -197 -361 -230 -555 -6 -33 -13 -73 -16 -90 -17 -100 -2 -384
29 -531 10 -50 49 -170 58 -181 6 -7 8 -13 4 -13 -14 0 119 -245 164 -303 249
-321 563 -540 1105 -771 61 -26 128 -56 150 -66 23 -10 86 -37 140 -60 624
-263 960 -547 1083 -915 37 -110 46 -170 46 -305 0 -157 -14 -245 -58 -370
-138 -386 -554 -610 -1135 -613 -194 -1 -280 8 -421 45 -97 25 -210 74 -285
123 -54 35 -207 180 -245 230 -8 11 -27 37 -42 57 -16 20 -28 40 -28 43 0 4
-8 19 -19 33 -22 32 -97 176 -396 757 -48 94 -96 184 -106 201 l-18 30 -108
-26 -108 -26 3 -30 c2 -16 16 -90 32 -164 16 -74 31 -155 35 -180 4 -24 8 -47
10 -50 2 -3 6 -21 9 -40 3 -19 14 -80 25 -135 11 -55 22 -111 24 -125 3 -14
19 -97 37 -185 17 -88 33 -169 35 -180 8 -49 55 -288 70 -355 2 -8 4 -22 4
-30 2 -31 21 -41 163 -95 178 -67 386 -129 538 -161 135 -28 194 -37 300 -50
25 -3 56 -7 70 -10 14 -2 79 -7 145 -11 257 -14 474 -5 625 27 25 5 57 12 73
15 211 39 450 133 662 259 230 136 385 275 534 475 156 211 250 454 278 721
14 135 4 362 -21 480 -3 14 -8 36 -11 50 -12 61 -62 202 -98 275 -102 208
-282 408 -512 567 -240 166 -491 291 -1085 538 -69 29 -143 60 -165 70 -22 10
-69 30 -105 45 -198 82 -398 212 -530 344 -158 158 -236 298 -285 511 -19 84
-26 272 -14 352 5 29 11 67 14 85 18 115 92 262 183 364 107 121 328 236 512
265 14 2 34 6 45 9 42 9 146 17 236 18 355 4 586 -106 774 -368 24 -33 85
-127 135 -210 51 -82 102 -166 115 -185 12 -19 73 -118 135 -220 62 -102 115
-187 116 -188 3 -5 213 44 220 50 2 3 -1 29 -7 59 -6 30 -12 65 -15 79 -2 14
-7 36 -9 50 -3 14 -8 39 -11 55 -3 17 -11 62 -19 100 -8 39 -17 88 -20 110 -4
22 -10 56 -15 75 -5 19 -11 51 -14 70 -6 36 -8 49 -26 136 -6 28 -13 64 -16
80 -26 148 -84 446 -89 454 -8 13 -258 90 -345 106 -14 3 -56 11 -95 19 -115
23 -186 34 -257 40 -37 3 -75 7 -85 9 -53 11 -516 28 -526 20z"/>
</g>
</svg>
