<?xml version="1.0" encoding="utf-8" ?><!DOCTYPE svg PUBLIC "-//W3C//DTD SVG 1.1//EN" "http://www.w3.org/Graphics/SVG/1.1/DTD/svg11.dtd"><svg height="32" viewBox="0 0 148 32" width="148" xmlns="http://www.w3.org/2000/svg"><g fill="none" transform="translate(2 2)"><path d="m11.206 20.228c1.898 0 3.328-.442 4.212-1.924l1.612-2.704h.78l-1.092 4.836c-1.56.494-3.484.988-6.318.988-5.98 0-10.4-4.654-10.4-10.296s4.524-10.296 10.66-10.296c2.834 0 4.68.494 5.876.91l.858 4.758h-.754l-1.404-2.548c-.884-1.508-2.678-1.924-4.654-1.924-3.64 0-7.254 2.548-7.254 8.32 0 5.902 3.12 9.88 7.878 9.88zm11.7790196-16.64c-1.014 0-1.794-.754-1.794-1.794 0-.988.78-1.794 1.794-1.794s1.794.806 1.794 1.794c0 1.04-.78 1.794-1.794 1.794zm1.43 15.6c0 .572.104.858.962.91l1.118.052v.936h-6.682v-.936l1.118-.052c.858-.052.962-.338.962-.91v-7.852c0-.754 0-.858-.546-1.118l-1.898-.806v-.156l4.966-1.898zm8.4510196 2.236c-1.716 0-2.886-.676-2.886-2.86v-9.1h-2.496v-.104l4.914-4.472h.104v3.146h3.692v1.43h-3.692v8.216c0 1.456.494 1.95 1.56 1.95.598 0 1.196-.286 2.08-.858l.494.754c-.806.572-1.534 1.066-1.95 1.326-.676.416-1.196.572-1.82.572zm8.0090196 6.604c-.936 0-1.43-.754-1.43-1.404 0-.338.104-.65.312-.884 1.144-.416 2.106-.832 2.47-1.092s.65-.884 1.014-1.716l.494-1.196-4.862-12.038c-.208-.546-.416-.624-1.456-.702l-.364-.026v-.936h6.682v.936l-.416.026c-1.326.078-1.794.182-1.482.988l3.276 8.398 2.652-7.488c.572-1.586.286-1.82-1.092-1.898l-.416-.026v-.936h5.382v.936l-.312.026c-1.17.104-1.43.13-2.08 1.742l-5.59 14.04c-.962 2.392-1.612 3.25-2.782 3.25z" fill="#646363"/><path d="m59.0500784 21.424c-1.924 0-3.614-.442-5.096-1.066l-1.04-5.33.78-.182 1.612 3.12c.884 1.716 2.054 2.262 3.822 2.262 2.418 0 4.316-1.014 4.316-3.484 0-2.028-1.612-3.276-3.562-4.134l-1.794-.78c-3.146-1.378-4.524-3.146-4.524-5.616 0-3.198 2.808-5.382 6.006-5.382 1.664 0 3.094.234 4.29.676l.858 4.498-.78.182-1.534-2.496c-.754-1.222-1.586-1.664-2.938-1.664-1.976 0-3.588.936-3.588 3.094 0 1.846 1.17 3.068 3.094 3.874l1.794.754c3.016 1.274 5.174 2.626 5.174 5.798 0 3.64-3.536 5.876-6.89 5.876zm13.8070196 0c-1.716 0-2.886-.676-2.886-2.86v-9.1h-2.496v-.104l4.914-4.472h.104v3.146h3.692v1.43h-3.692v8.216c0 1.456.494 1.95 1.56 1.95.598 0 1.196-.286 2.08-.858l.494.754c-.806.572-1.534 1.066-1.95 1.326-.676.416-1.196.572-1.82.572zm11.8050196-13.832c4.004 0 6.682 3.12 6.682 6.76 0 3.692-2.834 7.072-6.786 7.072-4.004 0-6.682-3.146-6.682-6.786 0-3.666 2.834-7.046 6.786-7.046zm-.546 1.118c-1.872 0-3.484 1.43-3.484 4.758 0 3.016 1.482 6.864 4.472 6.864 1.872 0 3.484-1.482 3.484-4.81 0-2.99-1.482-6.812-4.472-6.812zm13.8590197-1.352v2.73c.312-.312.806-.858 1.274-1.3.7539997-.728 1.5859997-1.17 2.3659997-1.17.884 0 1.586.52 1.586 1.404 0 .91-.65 1.586-1.248 1.612-.728-.39-1.586-.728-2.1059997-.806-.572 0-1.404.364-1.872 1.014v8.268c0 .572.104.884.962.91l1.6639997.052v1.014h-7.2279997v-.936l1.118-.052c.858-.052.962-.338.962-.91v-7.852c0-.754 0-.858-.546-1.118l-1.898-.806v-.156zm10.5570197 14.066c-2.002 0-4.03-1.612-4.03-3.588 0-1.95 1.586-2.86 4.576-3.9 1.092-.39 2.496-1.118 2.99-1.794v-.754c0-1.82-1.274-2.652-2.522-2.652-2.158 0-2.73 1.404-2.704 3.276-.208.104-.546.13-.806.13h-.052c-.858 0-1.43-.468-1.43-1.274 0-.728.858-1.404 2.366-2.054 1.248-.52 2.704-1.248 4.056-1.248 2.08 0 3.588.78 3.536 3.692l-.13 7.436c-.026.884.026.988.624.988.52 0 1.066-.052 1.508-.104l.104.806-.806.312c-.546.234-1.638.65-2.262.65-.858 0-1.222-.52-1.456-1.69-.52.442-1.066.884-1.69 1.248-.572.338-1.222.52-1.872.52zm1.378-1.43c.884 0 1.82-.546 2.002-1.3l.13-5.434c-.624.416-1.352.806-2.028 1.144-1.456.728-2.782 1.56-2.782 2.99 0 1.742 1.482 2.6 2.678 2.6zm13.755019-3.224c-.936 0-1.768-.182-2.496-.468l-.208 2.132c-.052.624.078.676 1.3.676h2.886c3.796 0 5.434 1.04 5.434 3.328 0 2.886-3.25 5.564-7.15 5.564-3.692 0-5.902-1.638-5.902-3.432 0-.676.312-1.404.962-1.794.936-.572 1.638-.988 2.704-1.534-1.482-.078-2.47-.832-2.47-1.742 0-.468.364-1.04.78-1.638l1.222-1.768c-1.534-.78-2.444-2.21-2.444-3.822 0-2.574 2.236-4.68 5.46-4.68 1.404 0 2.6.364 3.51.988l3.77-1.768v1.924c0 .442-.208.598-.858.52l-2.366-.234c.832.78 1.3 1.846 1.3 3.042 0 2.522-2.262 4.706-5.434 4.706zm.208-.832c1.352 0 2.6-.962 2.6-3.354 0-2.054-1.144-4.134-2.99-4.134-1.352 0-2.6.988-2.6 3.354 0 2.054 1.144 4.134 2.99 4.134zm.312 10.998c2.314 0 4.264-1.17 4.264-3.042 0-1.716-1.17-2.678-4.004-2.678h-.78c-2.34 0-3.718 1.56-3.718 2.652 0 1.794 2.132 3.068 4.238 3.068zm13.88502-5.512c-2.912 0-6.006-2.444-6.006-6.916 0-3.926 2.6-6.916 5.928-6.916 3.718 0 5.304 2.652 5.772 5.434h-9.178v.156c0 3.744 2.21 6.162 4.94 6.162 1.768 0 3.094-1.196 3.692-1.794l.598.65-.546.572c-1.664 1.742-3.172 2.652-5.2 2.652zm-.208-12.896c-2.132 0-2.99 1.794-3.198 3.484h6.136c-.156-2.08-1.04-3.484-2.938-3.484z" fill="#df016f"/></g></svg>